<?xml version="1.0" standalone="no"?>
<!DOCTYPE svg PUBLIC "-//W3C//DTD SVG 20010904//EN"
 "http://www.w3.org/TR/2001/REC-SVG-20010904/DTD/svg10.dtd">
<svg version="1.0" xmlns="http://www.w3.org/2000/svg"
 width="512.000000pt" height="512.000000pt" viewBox="0 0 512.000000 512.000000"
 preserveAspectRatio="xMidYMid meet">
<metadata>
Created by potrace 1.11, written by Peter Selinger 2001-2013
</metadata>
<g transform="translate(0.000000,512.000000) scale(0.100000,-0.100000)"
fill="#000000" stroke="none">
<path d="M0 2560 l0 -2560 2560 0 2560 0 0 2560 0 2560 -2560 0 -2560 0 0
-2560z m3700 1562 c87 -34 152 -112 166 -199 l6 -40 -68 -6 c-38 -4 -97 -7
-131 -7 -61 0 -63 1 -76 33 -8 17 -24 40 -35 51 -23 20 -96 32 -136 22 -33 -8
-60 -48 -51 -76 9 -28 48 -45 188 -79 190 -48 274 -96 316 -185 24 -48 28
-145 10 -206 -20 -67 -78 -132 -149 -168 -174 -87 -495 -54 -582 61 -39 50
-68 113 -74 160 l-6 44 77 6 c43 4 104 7 135 7 l58 0 6 -35 c15 -76 86 -122
174 -112 79 9 125 80 86 135 -21 31 -36 37 -165 72 -185 50 -262 92 -305 166
-87 147 3 323 190 370 82 21 297 13 366 -14z m-2610 -97 l0 -115 -140 0 -140
0 0 -340 0 -340 -140 0 -140 0 0 340 0 340 -145 0 -145 0 0 115 0 115 425 0
425 0 0 -115z m410 -172 c0 -159 5 -304 10 -324 5 -19 23 -48 40 -64 26 -24
40 -30 94 -33 75 -5 117 13 146 61 19 30 20 52 20 340 l0 307 140 0 140 0 0
-313 c0 -343 -4 -372 -59 -459 -78 -123 -239 -174 -465 -149 -114 13 -166 33
-225 87 -106 95 -121 160 -121 542 l0 292 140 0 140 0 0 -287z m1060 -58 l0
-345 220 0 220 0 0 -110 0 -110 -360 0 -360 0 0 455 0 455 140 0 140 0 0 -345z
m2212 -105 c92 -245 167 -448 168 -453 0 -4 -66 -6 -147 -5 l-147 3 -21 70
-21 70 -159 0 -159 0 -21 -70 -21 -70 -142 -3 c-78 -1 -142 1 -142 5 0 5 75
209 167 456 l168 447 155 -2 154 -3 168 -445z m-3191 -1074 c136 -29 228 -96
283 -206 43 -86 61 -188 52 -296 -15 -200 -103 -332 -263 -395 -51 -20 -75
-23 -203 -23 -160 0 -208 12 -302 74 -49 33 -114 119 -143 190 -27 67 -33 277
-10 356 47 164 152 263 317 299 83 18 187 18 269 1z m2204 -6 c59 -17 128 -67
163 -119 32 -47 58 -108 50 -117 -3 -2 -64 -15 -135 -28 l-130 -23 -18 33
c-36 67 -139 92 -221 55 -80 -37 -118 -117 -118 -251 1 -147 45 -229 140 -260
50 -17 139 -7 199 21 47 23 50 26 53 66 l3 42 -93 3 -93 3 -3 93 -3 92 221 0
220 0 0 -193 0 -194 -82 -47 c-132 -75 -198 -91 -363 -91 -163 0 -221 14 -305
72 -170 119 -231 412 -129 627 52 112 174 204 299 225 68 12 291 6 345 -9z
m-2905 -110 l0 -110 -140 0 -140 0 -2 -342 -3 -343 -137 -3 -138 -3 -2 343 -3
343 -142 3 -143 3 0 109 0 110 425 0 425 0 0 -110z m1470 -187 c0 -328 2 -343
63 -387 40 -30 144 -30 184 0 61 44 63 59 63 387 l0 297 140 0 140 0 0 -302
c0 -327 -5 -369 -54 -452 -34 -59 -97 -111 -165 -138 -49 -20 -74 -23 -206
-23 -219 0 -305 34 -382 149 -54 80 -56 95 -60 444 l-4 322 140 0 141 0 0
-297z m2120 137 l0 -160 150 0 150 0 0 160 0 160 145 0 145 0 -2 -452 -3 -453
-140 0 -140 0 -3 183 -2 182 -150 0 -150 0 -2 -182 -3 -183 -137 -3 -138 -3 0
456 0 455 140 0 140 0 0 -160z"/>
<path d="M4440 3888 c0 -2 -20 -71 -45 -152 -25 -82 -45 -150 -45 -152 0 -2
43 -4 95 -4 52 0 95 2 95 3 0 9 -91 301 -95 306 -3 2 -5 2 -5 -1z"/>
<path d="M1385 2405 c-52 -19 -101 -72 -115 -127 -7 -25 -10 -85 -8 -143 3
-83 8 -108 28 -145 56 -101 211 -122 287 -39 73 80 83 292 19 390 -42 62 -137
91 -211 64z"/>
</g>
</svg>
